<?xml version="1.0" encoding="UTF-8" standalone="no"?>
<svg xmlns:dc="http://purl.org/dc/elements/1.1/" xmlns:cc="http://creativecommons.org/ns#" xmlns:rdf="http://www.w3.org/1999/02/22-rdf-syntax-ns#" xmlns:svg="http://www.w3.org/2000/svg" xmlns="http://www.w3.org/2000/svg" xmlns:sodipodi="http://sodipodi.sourceforge.net/DTD/sodipodi-0.dtd" xmlns:inkscape="http://www.inkscape.org/namespaces/inkscape" width="320" height="160" viewBox="0 0 320 160" version="1.1" id="svg16">
 <g id="layer1">
 <ellipse cx="30" cy="61.1" rx="19.3" ry="19.2" fill="none" stroke="#698eff" stroke-width="1.5" stroke-linecap="butt" stroke-linejoin="miter" />
 <path fill="none" stroke="#000000" stroke-width="8.299" stroke-linecap="butt" stroke-linejoin="miter" d="M 30,51 L 30,36" id="path4615" />
 <path fill="none" stroke="#698eff" stroke-width="1.5" stroke-linecap="butt" stroke-linejoin="miter" d="M 25,43 L 25,31" id="path6164" />
 <path fill="none" stroke="#698eff" stroke-width="1.5" stroke-linecap="butt" stroke-linejoin="miter" d="M 25,31 L 23,25" id="path6267" />
 <path fill="none" stroke="#698eff" stroke-width="1.5" stroke-linecap="butt" stroke-linejoin="miter" d="M 35,43 L 35,31" id="path6166" />
 <path fill="none" stroke="#698eff" stroke-width="1.5" stroke-linecap="butt" stroke-linejoin="miter" d="M 35,31 L 37,25" id="path6269" />
 <path fill="none" stroke="#353238" stroke-width="1.5" stroke-linecap="butt" stroke-linejoin="miter" d="M 32.6005,25 L 32.6005,20" id="path4597" />
 <path fill="none" stroke="#698eff" stroke-width="1.5" stroke-linecap="butt" stroke-linejoin="miter" d="M 37,31 L 23,31" id="path6168" />
 <path fill="none" stroke="#383572" stroke-width="1.5" stroke-linecap="butt" stroke-linejoin="miter" d="M 47,41 C 51,37 52,35 57,35 L 70,35" id="path8073" />
 <path fill="none" stroke="#698eff" stroke-width="1.5" stroke-linejoin="miter" stroke-linecap="butt" d="M 42,46 L 47,41" id="path6220" />
 <path fill="none" stroke="#383572" stroke-width="1.5" stroke-linecap="butt" stroke-linejoin="miter" d="M 73,40 L 59,40 C 55,40 54,42 51.5,44.5" id="path8075" />
 <path fill="none" stroke="#698eff" stroke-width="1.5" stroke-linejoin="miter" stroke-linecap="butt" d="M 46,50 L 51,45" id="path6222" />
 <path fill="none" stroke="#353238" stroke-width="1.5" stroke-linecap="butt" stroke-linejoin="miter" d="M 27.6005,25 L 27.6005,15" id="path8059-5" />
 <path fill="none" stroke="#698eff" stroke-width="1.5" stroke-linejoin="miter" stroke-linecap="butt" d="M 46,39 L 53,46" id="path6230" />
 <path fill="none" stroke="#698eff" stroke-width="1.5" stroke-linecap="butt" stroke-linejoin="miter" d="M 22.1,25 L 38.1,25" id="path6271" />
 <path fill="none" stroke="#000000" stroke-width="3.799" stroke-linecap="butt" stroke-linejoin="miter" d="M 41.5,50.75 L 46.5,45.25" id="path4615-2" />
 <path fill="none" stroke="#353238" stroke-width="1.5" stroke-linecap="butt" stroke-linejoin="miter" d="M 287.4,99.9999 L 287.4,110 L 272.4,140 S 269.915,145 275.502,145 L 292.4,145" id="path6082" />
 <path fill="none" stroke="#353238" stroke-width="1.5" stroke-linecap="butt" stroke-linejoin="miter" d="M 290,95 L 290,90 S 290,85 285,85 S 280,85 280,85" id="path7965-37" />
 <path fill="none" stroke="#353238" stroke-width="1.5" stroke-linecap="butt" stroke-linejoin="miter" d="M 285,80 C 295,80 295,90 295,90" id="path8047-7" />
 <path fill="none" stroke="#353238" stroke-width="1.5" stroke-linecap="butt" stroke-linejoin="miter" d="M 287.4,99.9999 L 285.4,93.9999" id="path6267-9" />
 <path fill="none" stroke="#353238" stroke-width="1.5" stroke-linecap="butt" stroke-linejoin="miter" d="M 297.4,99.9999 L 297.4,110 L 312.4,140 S 314.885,145 309.298,145 L 292.4,145" id="path6082-7" />
 <path fill="none" stroke="#353238" stroke-width="1.5" stroke-linecap="butt" stroke-linejoin="miter" d="M 297.4,99.9999 L 299.4,93.9999" id="path6269-2" />
 <path fill="none" stroke="#353238" stroke-width="1.5" stroke-linecap="round" stroke-linejoin="miter" d="M 299.4,99.9999 L 285.4,99.9999" id="path6168-5" />
 <path fill="none" stroke="#353238" stroke-width="1.5" stroke-linecap="butt" stroke-linejoin="miter" d="M 295,95 L 295,90" id="path8059-2" />
 <path fill="none" stroke="#353238" stroke-width="1.5" stroke-linecap="butt" stroke-linejoin="miter" d="M 284.5,93.9999 L 300.5,93.9999" id="path6271-2" />
 <path fill="none" stroke="#353238" stroke-width="1.5" stroke-linecap="butt" stroke-linejoin="miter" d="M 60,100 L 58,94" id="path6267-9-2" />
 <path fill="none" stroke="#353238" stroke-width="1.5" stroke-linecap="butt" stroke-linejoin="miter" d="M 60,100 L 60,140 S 60,145 65,145 S 70,140 70,140 L 70,100" id="path6137" />
 <path fill="none" stroke="#353238" stroke-width="1.5" stroke-linecap="butt" stroke-linejoin="miter" d="M 67.6,95 L 67.6,90 S 67.6,85 72.6,85 S 77.6,85 77.6,85" id="path7965-3-8" />
 <path fill="none" stroke="#353238" stroke-width="1.5" stroke-linecap="butt" stroke-linejoin="miter" d="M 70,100 L 72,94" id="path6269-2-9" />
 <path fill="none" stroke="#353238" stroke-width="1.5" stroke-linecap="round" stroke-linejoin="miter" d="M 72,100 L 58,100" id="path6168-5-1" />
 <path fill="none" stroke="#353238" stroke-width="1.5" stroke-linecap="butt" stroke-linejoin="miter" d="M 57.1,94 L 73.1,94" id="path6271-2-3" />
 <path fill="none" stroke="#353238" stroke-width="1.5" stroke-linecap="round" stroke-linejoin="miter" d="M 225,38.6649 L 230.001,39.9975" id="path6217" />
 <path fill="none" stroke="#353238" stroke-width="1.5" stroke-linecap="round" stroke-linejoin="miter" d="M 225,48.6649 L 230.001,49.9975" id="path6217-3" />
 <path fill="none" stroke="#353238" stroke-width="1.5" stroke-linecap="round" stroke-linejoin="miter" d="M 225,58.6649 L 230.001,59.9975" id="path6217-3-0" />
 <path fill="none" stroke="#353238" stroke-width="1.5" stroke-linecap="round" stroke-linejoin="miter" d="M 225,68.6649 L 230.001,69.9975" id="path6217-3-2" />
 <path fill="none" stroke="#353238" stroke-width="1.5" stroke-linecap="butt" stroke-linejoin="miter" d="M 225,94.9998 L 225,29.9998" id="path6171" />
 <path fill="none" stroke="#353238" stroke-width="1.5" stroke-linecap="round" stroke-linejoin="miter" d="M 215,40 L 220,41.3326" id="path6217-0" />
 <path fill="none" stroke="#353238" stroke-width="1.5" stroke-linecap="round" stroke-linejoin="miter" d="M 215,50 L 220,51.3326" id="path6217-0-6" />
 <path fill="none" stroke="#353238" stroke-width="1.5" stroke-linecap="round" stroke-linejoin="miter" d="M 215,60 L 220,61.3326" id="path6217-0-6-6" />
 <path fill="none" stroke="#353238" stroke-width="1.5" stroke-linecap="round" stroke-linejoin="miter" d="M 215,70 L 220,71.3326" id="path6217-0-6-0" />
 <path fill="none" stroke="#353238" stroke-width="1.5" stroke-linecap="butt" stroke-linejoin="miter" d="M 220,94.9998 L 220,29.9998" id="path6173" />
 <path fill="#000000" stroke="#353238" stroke-width="1.5" stroke-linecap="butt" stroke-linejoin="round" d="M 235,30 L 230,30 L 215,35 L 215,40 L 230,35 L 235,35" id="path6200" />
 <path fill="#000001" stroke="#353238" stroke-width="1.5" stroke-linecap="butt" stroke-linejoin="round" d="M 230,40 L 230,45 L 215,50 L 215,45 Z" id="path6200-4" />
 <path fill="#000001" stroke="#353238" stroke-width="1.5" stroke-linecap="butt" stroke-linejoin="round" d="M 230,50 L 230,55 L 215,60 L 215,55 Z" id="path6200-4-1" />
 <path fill="#000001" stroke="#353238" stroke-width="1.5" stroke-linecap="butt" stroke-linejoin="round" d="M 230,60 L 230,65 L 215,70 L 215,65 Z" id="path6200-4-1-3" />
 <path fill="#000000" stroke="#353238" stroke-width="1.5" stroke-linecap="butt" stroke-linejoin="round" d="M 210,80 L 215,80 L 230,75 L 230,70 L 215,75 L 210,75" id="path6200-1" />
 <path fill="none" stroke="#383572" stroke-width="1.5" stroke-linecap="butt" stroke-linejoin="miter" d="M 26,91.9 L 34,91.9" id="path6964-9" />
 <path fill="none" stroke="#383572" stroke-width="1.5" stroke-linecap="butt" stroke-linejoin="miter" d="M 33,91.5 L 33,87.5" id="path6978-4" />
 <path fill="none" stroke="#383572" stroke-width="1.5" stroke-linecap="butt" stroke-linejoin="miter" d="M 33,86.5 L 33,84.5" id="path6980-7" />
 <path fill="none" stroke="#383572" stroke-width="1.5" stroke-linecap="butt" stroke-linejoin="miter" d="M 30,90.5 L 30,87.5" id="path6982-4" />
 <path fill="none" stroke="#383572" stroke-width="1.5" stroke-linecap="butt" stroke-linejoin="miter" d="M 30,83.5 L 30,84.5" id="path6984-4" />
 <path fill="none" stroke="#383572" stroke-width="1.5" stroke-linecap="butt" stroke-linejoin="miter" d="M 27,86.5 L 27,89.5" id="path6990-7" />
 <path fill="none" stroke="#383572" stroke-width="1.5" stroke-linecap="butt" stroke-linejoin="miter" d="M 30,85.5 L 30,86.5" id="path6992-8" />
 <path fill="none" stroke="#383572" stroke-width="1.5" stroke-linecap="butt" stroke-linejoin="miter" d="M 27,90.5 L 27,91.9" id="path6994-6" />
 <path fill="none" stroke="#383572" stroke-width="1.5" stroke-linecap="butt" stroke-linejoin="miter" d="M 27,85.3203 L 27,84.3203" id="path7000-4" />
 <path fill="none" stroke="#698eff" stroke-width="1.5" stroke-linecap="butt" stroke-linejoin="miter" d="M 27,94 L 33,94 L 33,97 L 27,97 Z" id="path6496" />
 <path fill="#ff3a5d" stroke-width="1.5" id="base3_1_" d="M 261.962,57.196 C 261.962,55.625 263.233,54.35 264.81,54.35 C 266.378,54.35 267.656,55.622 267.656,57.196 C 267.656,58.772 266.385,60.051 264.81,60.051 S 261.962,58.77 261.962,57.196" />
 <line fill="#000000" stroke="#ff3a5d" stroke-width="2" stroke-linecap="square" stroke-linejoin="bevel" id="bar3" x1="265" y1="57.6" x2="258" y2="64.6" />
 <path fill="#ffffff" id="base2_1_" d="M 165.166,52.596 C 165.166,51.025 166.438,49.75 168.012,49.75 S 170.858,51.022 170.858,52.596 C 170.858,54.172 169.587,55.451 168.012,55.451 C 166.44,55.452 165.166,54.17 165.166,52.596" />
 <path fill="#4d9eff" id="base0_1_" d="M 26.952,107.595 C 26.952,106.024 28.225,104.75 29.798,104.75 C 31.368,104.75 32.643,106.023 32.643,107.595 C 32.643,109.171 31.369,110.45 29.798,110.45 C 28.225,110.45 26.952,109.17 26.952,107.595" />
 <path fill="#00ed95" id="base1_1_" d="M 155.352,132.595 C 155.352,131.024 156.623,129.75 158.197,129.75 C 159.768,129.75 161.042,131.023 161.042,132.595 C 161.042,134.171 159.771,135.45 158.197,135.45 C 156.623,135.45 155.352,134.17 155.352,132.595" />
 <line fill="none" stroke="#00ed95" stroke-width="2" stroke-linecap="square" stroke-linejoin="bevel" id="bar1" x1="158.399" y1="133" x2="150.44" y2="141" />
 <line fill="none" stroke="#ffffff" stroke-width="2" stroke-linecap="square" stroke-linejoin="bevel" id="bar2" x1="168.201" y1="53.0002" x2="161.2" y2="60.0002" />
 <line fill="none" stroke="#4d9eff" stroke-width="2" stroke-linecap="square" stroke-linejoin="bevel" id="bar0" x1="29.9999" y1="107.999" x2="23.9998" y2="113.999" />
 <path fill="none" stroke="#353238" stroke-width="1.5" stroke-linecap="butt" stroke-linejoin="miter" d="M 195,120 L 195,125 S 195,130 190,130 S 185,130 185,130" id="path7965-2-4" />
 <path fill="none" stroke="#353238" stroke-width="1.5" stroke-linecap="butt" stroke-linejoin="miter" d="M 170,130 L 185,130" id="path8061-24-6-7" />
 <path fill="none" stroke="#353238" stroke-width="1.5" stroke-linecap="butt" stroke-linejoin="miter" d="M 170,135 L 190,135" id="path8061-24-6" />
 <ellipse cx="157.6" cy="132.5" rx="12.2197" ry="12.2197" fill="none" stroke="#00ed95" stroke-width="1.5" stroke-linecap="butt" stroke-linejoin="miter" />
 <path fill="none" stroke="#00ed95" stroke-width="1.5" stroke-linecap="butt" stroke-linejoin="miter" d="M 130,135 L 145.219,135" id="path6806-0-5" />
 <path fill="none" stroke="#00ed95" stroke-width="1.5" stroke-linecap="butt" stroke-linejoin="miter" d="M 134.999,130 L 145.219,130" id="path6808-61-9" />
 <path fill="none" stroke="#698eff" stroke-width="1.5" stroke-linecap="butt" stroke-linejoin="miter" d="M 27,122 L 15,124 L 15,145 L 45,145 L 45,124 L 33,122 Z" id="path6925" />
 <ellipse cx="30" cy="108" rx="10.0162" ry="10.0162" fill="none" stroke="#698eff" stroke-width="1.5" stroke-linecap="butt" stroke-linejoin="miter" />
 <path fill="none" stroke="#698eff" stroke-width="1.5" stroke-linecap="butt" stroke-linejoin="miter" d="M 27,122 C 27,118 27,118 27,118" id="path6944" />
 <path fill="none" stroke="#698eff" stroke-width="1.5" stroke-linecap="butt" stroke-linejoin="miter" d="M 33,122 L 33,118" id="path6946" />
 <path fill="none" stroke="#00ed95" stroke-width="1.5" stroke-linecap="butt" stroke-linejoin="miter" d="M 155,120.6 L 154.999,115" id="path6808-61-9-9" />
 <path fill="none" stroke="#353238" stroke-width="1.5" stroke-linecap="butt" stroke-linejoin="miter" d="M 210,105 C 215,105 215,110 215,110 L 215,140 S 215,145 220.1,145 L 245,145 S 250,145 250,140 L 250,110 S 250,105 255,105" id="path7895" />
 <path fill="none" stroke="#353238" stroke-width="1.5" stroke-linecap="butt" stroke-linejoin="miter" d="M 210,105 L 255,105" id="path7911" />
 <path fill="none" stroke="#353238" stroke-width="1.5" stroke-linecap="butt" stroke-linejoin="miter" d="M 100,40 L 100,10 S 100,5 105,5 S 110,5 110,5 S 115,5 115,10 S 115,40 115,40" id="path7918" />
 <path fill="none" stroke="#353238" stroke-width="1.5" stroke-linecap="butt" stroke-linejoin="miter" d="M 100,40 S 100.188,44.0385 102.547,45 C 105,46 105,50 105,50" id="path7934" />
 <path fill="none" stroke="#353238" stroke-width="1.5" stroke-linecap="butt" stroke-linejoin="miter" d="M 115,40 S 114.812,44.0385 112.453,45 C 110,46 110,50 110,50" id="path7934-6" />
 <path fill="none" stroke="#353238" stroke-width="1.5" stroke-linecap="butt" stroke-linejoin="miter" d="M 519.25,20 L 519.25,15 S 519.25,10 514.25,10 S 509.25,10 509.25,10" id="path7965" />
 <path fill="none" stroke="#353238" stroke-width="1.5" stroke-linecap="butt" stroke-linejoin="miter" d="M 519.25,50 L 519.25,45 S 519.25,40 514.25,40 S 509.25,40 509.25,40" id="path7965-3" />
 <path fill="none" stroke="#353238" stroke-width="1.5" stroke-linecap="butt" stroke-linejoin="miter" d="M 519.25,25 L 519.25,30 S 519.25,35 514.25,35 S 509.25,35 509.25,35" id="path7965-3-9" />
 <path fill="none" stroke="#353238" stroke-width="1.5" stroke-linecap="butt" stroke-linejoin="miter" d="M 524.25,25 L 524.25,50" id="path8029" />
 <path fill="none" stroke="#353238" stroke-width="1.5" stroke-linecap="butt" stroke-linejoin="miter" d="M 514.25,5 C 524.25,5 524.25,15 524.25,15" id="path8047" />
 <path fill="none" stroke="#353238" stroke-width="1.5" stroke-linecap="butt" stroke-linejoin="miter" d="M 524.25,20 L 524.25,15" id="path8059" />
 <path fill="none" stroke="#353238" stroke-width="1.5" stroke-linecap="butt" stroke-linejoin="miter" d="M 509.25,5 L 514.25,5" id="path8061" />
 <path fill="none" stroke="#353238" stroke-width="1.5" stroke-linecap="butt" stroke-linejoin="miter" d="M 32.6005,20 L 32.6005,15 S 32.6005,10 37.6005,10 S 42.6005,10 42.6005,10" id="path7965-8" />
 <path fill="none" stroke="#353238" stroke-width="1.5" stroke-linecap="butt" stroke-linejoin="miter" d="M 37.6005,5 C 27.6005,5 27.6005,15 27.6005,15" id="path8047-8" />
 <path fill="none" stroke="#353238" stroke-width="1.5" stroke-linecap="butt" stroke-linejoin="miter" d="M 57.6,5 L 37.6003,5" id="path8061-0" />
 <path fill="none" stroke="#383572" stroke-width="1.5" stroke-linecap="butt" stroke-linejoin="miter" d="M 83,50 L 83,45 S 83,40 78,40 S 73,40 73,40" id="path7965-9" />
 <path fill="none" stroke="#383572" stroke-width="1.5" stroke-linecap="butt" stroke-linejoin="miter" d="M 78,35 C 88,35 88,45 88,45" id="path8047-6" />
 <path fill="none" stroke="#383572" stroke-width="1.5" stroke-linecap="butt" stroke-linejoin="miter" d="M 88,60 L 88,45" id="path8059-3" />
 <path fill="none" stroke="#383572" stroke-width="1.5" stroke-linecap="butt" stroke-linejoin="miter" d="M 70,35 L 78,35" id="path8061-8" />
 <path fill="none" stroke="#383572" stroke-width="1.5" stroke-linecap="butt" stroke-linejoin="miter" d="M 83,50 L 83,60" id="path8059-3-1" />
 <path fill="none" stroke="#353238" stroke-width="1.5" stroke-linecap="butt" stroke-linejoin="miter" d="M 135,60 L 135,55" id="path8061-8-1" />
 <path fill="none" stroke="#353238" stroke-width="1.5" stroke-linecap="butt" stroke-linejoin="miter" d="M 105,55 L 105,52" id="path8059-3-5" />
 <path fill="none" stroke="#353238" stroke-width="1.5" stroke-linecap="butt" stroke-linejoin="miter" d="M 105,55 L 105,60 S 105,65 100,65 S 95,65 95,65" id="path7965-3-9-5" />
 <path fill="none" stroke="#353238" stroke-width="1.5" stroke-linecap="butt" stroke-linejoin="miter" d="M 110,55 L 110,60 S 110,65 115,65 S 120,65 120,65" id="path7965-3-9-5-9" />
 <path fill="none" stroke="#353238" stroke-width="1.5" stroke-linecap="butt" stroke-linejoin="miter" d="M 67.6,70 L 67.6,75 S 67.6,80 72.6,80 S 77.6,80 77.6,80" id="path7965-3-9-4" />
 <path fill="none" stroke="#353238" stroke-width="1.5" stroke-linecap="butt" stroke-linejoin="miter" d="M 62.6,20 L 62.6,15 S 62.6,10 57.6,10 S 52.6,10 52.6,10" id="path7965-1" />
 <path fill="none" stroke="#353238" stroke-width="1.5" stroke-linecap="butt" stroke-linejoin="miter" d="M 57.6,5 C 67.6,5 67.6,15 67.6,15" id="path8047-0" />
 <path fill="none" stroke="#353238" stroke-width="1.5" stroke-linecap="butt" stroke-linejoin="miter" d="M 42.6005,10 L 52.6,10" id="path8258" />
 <path fill="none" stroke="#353238" stroke-width="1.5" stroke-linecap="butt" stroke-linejoin="miter" d="M 62.6,20 L 62.6,32" id="path8260" />
 <path fill="none" stroke="#353238" stroke-width="1.5" stroke-linecap="butt" stroke-linejoin="miter" d="M 67.6,15.0001 L 67.6,32.0001" id="path8262" />
 <path fill="none" stroke="#353238" stroke-width="1.5" stroke-linecap="butt" stroke-linejoin="miter" d="M 62.6,42.9998 L 62.6,93.9997" id="path8264" />
 <path fill="none" stroke="#353238" stroke-width="1.5" stroke-linecap="butt" stroke-linejoin="miter" d="M 67.6,43 L 67.6,70.0002" id="path8266" />
 <path fill="none" stroke="#353238" stroke-width="1.5" stroke-linecap="butt" stroke-linejoin="miter" d="M 110,55 L 110,52" id="path8059-3-5-2" />
 <path fill="none" stroke="#353238" stroke-width="1.5" stroke-linecap="round" stroke-linejoin="miter" d="M 104,52 L 111,52" id="path8282" />
 <path fill="none" stroke="#353238" stroke-width="1.5" stroke-linecap="butt" stroke-linejoin="miter" d="M 95,70 L 125,70" id="path8258-4" />
 <path fill="none" stroke="#353238" stroke-width="1.5" stroke-linecap="butt" stroke-linejoin="miter" d="M 90,95 L 90,90 S 90,85 85,85 S 80,85 80,85" id="path7965-6" />
 <path fill="none" stroke="#353238" stroke-width="1.5" stroke-linecap="butt" stroke-linejoin="miter" d="M 95,95 L 95,90 S 95,85 100,85 S 105,85 105,85" id="path7965-6-3" />
 <path fill="none" stroke="#353238" stroke-width="1.5" stroke-linecap="butt" stroke-linejoin="miter" d="M 87.001,100 L 85,94.0002" id="path6267-9-2-1" />
 <path fill="none" stroke="#353238" stroke-width="1.5" stroke-linecap="butt" stroke-linejoin="miter" d="M 87.001,100 L 87.001,140 S 87.001,145 92.001,145 S 97.001,140 97.001,140 L 97.001,100" id="path6137-7" />
 <path fill="none" stroke="#353238" stroke-width="1.5" stroke-linecap="butt" stroke-linejoin="miter" d="M 97.001,100 L 99.001,94.0002" id="path6269-2-9-5" />
 <path fill="none" stroke="#353238" stroke-width="1.5" stroke-linecap="round" stroke-linejoin="miter" d="M 99.001,100 L 85,100" id="path6168-5-1-9" />
 <path fill="none" stroke="#353238" stroke-width="1.5" stroke-linecap="butt" stroke-linejoin="miter" d="M 84.1,94.0002 L 100.1,94.0002" id="path6271-2-3-6" />
 <path fill="none" stroke="#353238" stroke-width="1.5" stroke-linecap="butt" stroke-linejoin="miter" d="M 76.9999,80 L 115,80" id="path8258-4-2" />
 <path fill="none" stroke="#353238" stroke-width="1.5" stroke-linecap="butt" stroke-linejoin="miter" d="M 120,90 S 120,85 115,85 L 110,85" id="path7965-1-5" />
 <path fill="none" stroke="#353238" stroke-width="1.5" stroke-linecap="butt" stroke-linejoin="miter" d="M 115,80 C 125,80 125,90 125,90" id="path8047-0-7" />
 <path fill="none" stroke="#00ed95" stroke-width="1.5" stroke-linecap="butt" stroke-linejoin="miter" d="M 124.999,120 L 124.999,125 S 124.999,130 129.999,130 S 134.999,130 134.999,130" id="path7965-4" />
 <path fill="none" stroke="#00ed95" stroke-width="1.5" stroke-linecap="butt" stroke-linejoin="miter" d="M 129.999,135 C 119.999,135 119.999,125 119.999,125" id="path8047-1" />
 <path fill="none" stroke="#00ed95" stroke-width="1.5" stroke-linecap="butt" stroke-linejoin="miter" d="M 124.999,115 L 124.999,120" id="path8266-9" />
 <path fill="none" stroke="#00ed95" stroke-width="1.5" stroke-linecap="butt" stroke-linejoin="miter" d="M 119.999,115 L 119.999,125" id="path8266-9-7" />
 <path fill="none" stroke="#353238" stroke-width="1.5" stroke-linecap="butt" stroke-linejoin="miter" d="M 110,52 L 110,50" id="path8059-3-5-3" />
 <path fill="none" stroke="#353238" stroke-width="1.5" stroke-linecap="butt" stroke-linejoin="miter" d="M 210,15 L 260,15" id="path8029-0-2" />
 <path fill="none" stroke="#7c7990" stroke-width="1.5" stroke-linecap="butt" stroke-linejoin="miter" d="M 181,42 L 192,28" id="path8901-2-4" />
 <path fill="none" stroke="#7c7990" stroke-width="1.5" stroke-linecap="butt" stroke-linejoin="miter" d="M 185,15 L 150.2,15 S 145.2,15 145.2,20 L 145.2,22" id="path9668" />
 <path fill="none" stroke="#7c7990" stroke-width="1.5" stroke-linecap="butt" stroke-linejoin="miter" d="M 177,39 L 188,25" id="path8901-2-4-3" />
 <path fill="none" stroke="#353238" stroke-width="1.5" stroke-linecap="butt" stroke-linejoin="miter" d="M 220,30 L 220,25 S 220,20 215,20 S 210,20 210,20" id="path7965-5" />
 <ellipse cx="197.52" cy="17.0102" rx="12.5" ry="12.5" fill="none" stroke="#ffffff" stroke-width="1.5" stroke-linecap="butt" stroke-linejoin="miter" />
 <path fill="none" stroke="#353238" stroke-width="1.5" stroke-linecap="butt" stroke-linejoin="miter" d="M 165,90 L 164.999,70.8504" id="path6808-61-9-9-9" />
 <path fill="none" stroke="#353238" stroke-width="1.5" stroke-linecap="butt" stroke-linejoin="miter" d="M 169.999,89.9999 L 169.998,70.849" id="path6808-61-9-9-6-8" />
 <path fill="none" stroke="#353238" stroke-width="1.5" stroke-linecap="butt" stroke-linejoin="miter" d="M 135,55 S 135,50 140,50" id="path7965-0-5" />
 <path fill="none" stroke="#353238" stroke-width="1.5" stroke-linecap="butt" stroke-linejoin="miter" d="M 152.37,45 L 140,45" id="path8061-2-14" />
 <path fill="none" stroke="#7c7990" stroke-width="1.5" stroke-linecap="butt" stroke-linejoin="miter" d="M 158.95,38.25 L 153.45,31.75" id="path8901-2-5" />
 <path fill="none" stroke="#7c7990" stroke-width="1.5" stroke-linecap="butt" stroke-linejoin="miter" d="M 155.2,42 L 149.7,35.5" id="path8901-2-5-4" />
 <path fill="none" stroke="#353238" stroke-width="1.5" stroke-linecap="butt" stroke-linejoin="miter" d="M 150,50 L 140,50" id="path8061-2-14-9" />
 <ellipse cx="167.699" cy="53.5" rx="17.5282" ry="17.5282" fill="none" stroke="#ffffff" stroke-width="1.5" stroke-linecap="butt" stroke-linejoin="miter" />
 <path fill="none" stroke="#353238" stroke-width="1.5" stroke-linecap="butt" stroke-linejoin="miter" d="M 245,140 L 248.9,140" id="path6212-3-1" />
 <path fill="none" stroke="#353238" stroke-width="1.5" stroke-linecap="butt" stroke-linejoin="miter" d="M 245,135 L 248.9,135" id="path6212-3-1-8" />
 <path fill="none" stroke="#353238" stroke-width="1.5" stroke-linecap="butt" stroke-linejoin="miter" d="M 245,130 L 248.9,130" id="path6212-3-1-8-9" />
 <path fill="none" stroke="#353238" stroke-width="1.5" stroke-linecap="butt" stroke-linejoin="miter" d="M 243,125 L 248.9,125" id="path6212-3-1-8-9-6" />
 <path fill="none" stroke="#353238" stroke-width="1.5" stroke-linecap="butt" stroke-linejoin="miter" d="M 245,120 L 248.9,120" id="path6212-3-1-8-9-6-4" />
 <path fill="none" stroke="#353238" stroke-width="1.5" stroke-linecap="butt" stroke-linejoin="miter" d="M 245,115 L 248.9,115" id="path6212-3-1-8-9-6-4-3" />
 <path fill="none" stroke="#353238" stroke-width="1.5" stroke-linecap="butt" stroke-linejoin="miter" d="M 245,110 L 248.9,110" id="path6212-3-1-8-9-6-4-3-3" />
 <path fill="none" stroke="#353238" stroke-width="1.5" stroke-linecap="butt" stroke-linejoin="miter" d="M 102,17.4844 L 113,17.4844" id="path8700" />
 <path fill="none" stroke="#353238" stroke-width="1.5" stroke-linecap="butt" stroke-linejoin="miter" d="M 110,40 L 113.9,40" id="path6212-3-8" />
 <path fill="none" stroke="#353238" stroke-width="1.5" stroke-linecap="butt" stroke-linejoin="miter" d="M 110,35 L 113.9,35" id="path6212-3-1-6" />
 <path fill="none" stroke="#353238" stroke-width="1.5" stroke-linecap="butt" stroke-linejoin="miter" d="M 110,30 L 113.9,30" id="path6212-3-1-8-0" />
 <path fill="none" stroke="#353238" stroke-width="1.5" stroke-linecap="butt" stroke-linejoin="miter" d="M 108,25 L 113.9,25" id="path6212-3-1-8-9-4" />
 <path fill="none" stroke="#353238" stroke-width="1.5" stroke-linecap="butt" stroke-linejoin="miter" d="M 110,20 L 113.9,20" id="path6212-3-1-8-9-6-8" />
 <path fill="none" stroke="#353238" stroke-width="1.5" stroke-linecap="butt" stroke-linejoin="miter" d="M 110,15 L 113.9,15" id="path6212-3-1-8-9-6-4-8" />
 <path fill="none" stroke="#353238" stroke-width="1.5" stroke-linecap="butt" stroke-linejoin="miter" d="M 110,10 L 113.9,10" id="path6212-3-1-8-9-6-4-3-8" />
 <ellipse cx="147.6" cy="28.5" rx="7" ry="7" fill="none" stroke="#ffffff" stroke-width="1.5" stroke-linecap="butt" stroke-linejoin="miter" />
 <path fill="none" stroke="#353238" stroke-width="1.5" stroke-linecap="butt" stroke-linejoin="miter" d="M 225,30 L 225,25 S 225,20 230,20 S 235,20 235,20" id="path7965-5-9" />
 <path fill="none" stroke="#353238" stroke-width="1.5" stroke-linecap="butt" stroke-linejoin="miter" d="M 489.25,50 L 489.25,45 S 489.25,40 484.25,40 S 479.25,40 479.25,40" id="path7965-12" />
 <path fill="none" stroke="#353238" stroke-width="1.5" stroke-linecap="butt" stroke-linejoin="miter" d="M 494.25,50 L 494.25,45 S 494.25,40 499.25,40 S 504.25,40 504.25,40" id="path7965-5-9-8" />
 <path fill="none" stroke="#353238" stroke-width="1.5" stroke-linecap="butt" stroke-linejoin="miter" d="M 494.25,25 L 494.25,30 S 494.25,35 499.25,35 S 504.25,35 504.25,35" id="path7965-12-9" />
 <path fill="none" stroke="#353238" stroke-width="1.5" stroke-linecap="butt" stroke-linejoin="miter" d="M 489.25,25 L 489.25,30 S 489.25,35 484.25,35 S 479.25,35 479.25,35" id="path7965-5-9-8-3" />
 <path fill="none" stroke="#353238" stroke-width="1.5" stroke-linecap="butt" stroke-linejoin="miter" d="M 489.25,20 L 489.25,15 S 489.25,10 484.25,10 S 479.25,10 479.25,10" id="path7965-12-6" />
 <path fill="none" stroke="#353238" stroke-width="1.5" stroke-linecap="butt" stroke-linejoin="miter" d="M 494.25,20 L 494.25,15 S 494.25,10 499.25,10 S 504.25,10 504.25,10" id="path7965-5-9-8-8" />
 <path fill="none" stroke="#353238" stroke-width="1.5" stroke-linecap="butt" stroke-linejoin="miter" d="M 479.25,5 L 504.25,5" id="path8029-0" />
 <path fill="none" stroke="#353238" stroke-width="1.5" stroke-linecap="butt" stroke-linejoin="miter" d="M 465,20 L 465,15 S 465,10 470,10 S 475,10 475,10" id="path7965-0" />
 <path fill="none" stroke="#353238" stroke-width="1.5" stroke-linecap="butt" stroke-linejoin="miter" d="M 470,5 C 460,5 460,15 460,15" id="path8047-64" />
 <path fill="none" stroke="#353238" stroke-width="1.5" stroke-linecap="butt" stroke-linejoin="miter" d="M 460,20 L 460,15" id="path8059-6" />
 <path fill="none" stroke="#353238" stroke-width="1.5" stroke-linecap="butt" stroke-linejoin="miter" d="M 475,5 L 470,5" id="path8061-2" />
 <path fill="none" stroke="#353238" stroke-width="1.5" stroke-linecap="butt" stroke-linejoin="miter" d="M 465,50 L 465,45 S 465,40 470,40 S 475,40 475,40" id="path7965-3-5" />
 <path fill="none" stroke="#353238" stroke-width="1.5" stroke-linecap="butt" stroke-linejoin="miter" d="M 465,25 L 465,30 S 465,35 470,35 S 475,35 475,35" id="path7965-3-9-8" />
 <path fill="none" stroke="#353238" stroke-width="1.5" stroke-linecap="butt" stroke-linejoin="miter" d="M 460,25 L 460,50" id="path8029-6" />
 <path fill="none" stroke="#353238" stroke-width="1.5" stroke-linecap="butt" stroke-linejoin="miter" d="M 519.25,54.25 L 519.25,59.25 S 519.25,64.25 514.25,64.25 S 509.25,64.25 509.25,64.25" id="path7965-2" />
 <path fill="none" stroke="#353238" stroke-width="1.5" stroke-linecap="butt" stroke-linejoin="miter" d="M 514.25,69.25 C 524.25,69.25 524.25,59.25 524.25,59.25" id="path8047-84" />
 <path fill="none" stroke="#353238" stroke-width="1.5" stroke-linecap="butt" stroke-linejoin="miter" d="M 524.25,54.25 L 524.25,59.25" id="path8059-7" />
 <path fill="none" stroke="#353238" stroke-width="1.5" stroke-linecap="butt" stroke-linejoin="miter" d="M 509.25,69.25 L 514.25,69.25" id="path8061-24" />
 <path fill="none" stroke="#353238" stroke-width="1.5" stroke-linecap="butt" stroke-linejoin="miter" d="M 489.25,54.25 L 489.25,59.25 S 489.25,64.25 484.25,64.25 S 479.25,64.25 479.25,64.25" id="path7965-12-6-0" />
 <path fill="none" stroke="#353238" stroke-width="1.5" stroke-linecap="butt" stroke-linejoin="miter" d="M 494.25,54.25 L 494.25,59.25 S 494.25,64.25 499.25,64.25 S 504.25,64.25 504.25,64.25" id="path7965-5-9-8-8-6" />
 <path fill="none" stroke="#353238" stroke-width="1.5" stroke-linecap="butt" stroke-linejoin="miter" d="M 479.25,69.25 L 504.25,69.25" id="path8029-0-29" />
 <path fill="none" stroke="#353238" stroke-width="1.5" stroke-linecap="butt" stroke-linejoin="miter" d="M 465,54.25 L 465,59.25 S 465,64.25 470,64.25 S 475,64.25 475,64.25" id="path7965-0-9" />
 <path fill="none" stroke="#353238" stroke-width="1.5" stroke-linecap="butt" stroke-linejoin="miter" d="M 470,69.25 C 460,69.25 460,59.25 460,59.25" id="path8047-64-0" />
 <path fill="none" stroke="#353238" stroke-width="1.5" stroke-linecap="butt" stroke-linejoin="miter" d="M 460,54.25 L 460,59.25" id="path8059-6-8" />
 <path fill="none" stroke="#353238" stroke-width="1.5" stroke-linecap="butt" stroke-linejoin="miter" d="M 475,69.25 L 470,69.25" id="path8061-2-1" />
 <path fill="none" stroke="#00475b" stroke-width="1.5" stroke-linecap="butt" stroke-linejoin="miter" d="M 155,110 L 155,95" id="path6808-61-9-9-7-4-9" />
 <path fill="none" stroke="#00475b" stroke-width="1.5" stroke-linecap="butt" stroke-linejoin="miter" d="M 135,110 L 135,95" id="path6808-61-9-9-7-4-9-0" />
 <path fill="none" stroke="#00ed95" stroke-width="1.5" stroke-linecap="butt" stroke-linejoin="miter" d="M 120,90 C 115,90 115,95 115,95 L 115,110 S 115,115 120,115" id="path9299" />
 <path fill="none" stroke="#00ed95" stroke-width="1.5" stroke-linecap="butt" stroke-linejoin="miter" d="M 169.999,90.0002 C 174.999,90.0002 174.999,95.0002 174.999,95.0002 L 174.999,110 S 174.999,115 169.999,115" id="path9299-1" />
 <path fill="none" stroke="#00ed95" stroke-width="1.5" stroke-linecap="butt" stroke-linejoin="miter" d="M 120,90.0002 L 169.999,90.0002" id="path9420" />
 <path fill="none" stroke="#00ed95" stroke-width="1.5" stroke-linecap="butt" stroke-linejoin="miter" d="M 120,115 L 169.999,115" id="path9420-4" />
 <path fill="none" stroke="#00ed95" stroke-width="1.5" stroke-linecap="butt" stroke-linejoin="miter" d="M 160.001,120.6 L 160,115" id="path6808-61-9-9-6" />
 <path fill="none" stroke="#353238" stroke-width="1.5" stroke-linecap="butt" stroke-linejoin="miter" d="M 140,45 C 130,45 130,55 130,55" id="path8047-64-9" />
 <path fill="none" stroke="#698eff" stroke-width="1.5" stroke-linecap="butt" stroke-linejoin="miter" d="M 95,65 L 95,70 S 95,75 90,75 L 80,75" id="path7965-0-5-9" />
 <path fill="none" stroke="#698eff" stroke-width="1.5" stroke-linecap="butt" stroke-linejoin="miter" d="M 75,65 L 75,70 S 75,75 80,75" id="path7965-0-5-9-0" />
 <path fill="none" stroke="#698eff" stroke-width="1.5" stroke-linecap="butt" stroke-linejoin="miter" d="M 95,65 S 95,60 90,60 L 80,60" id="path7965-0-5-9-7" />
 <path fill="none" stroke="#698eff" stroke-width="1.5" stroke-linecap="butt" stroke-linejoin="miter" d="M 75,65 S 75,60 80,60" id="path7965-0-5-9-0-5" />
 <path fill="none" stroke="#353238" stroke-width="1.5" stroke-linecap="butt" stroke-linejoin="miter" d="M 190,135 C 200,135 200,125 200,125" id="path8047-84-2" />
 <path fill="none" stroke="#353238" stroke-width="1.5" stroke-linecap="butt" stroke-linejoin="miter" d="M 200,90 L 200,85 S 200,80 205,80 S 210,80 210,80" id="path7965-0-1" />
 <path fill="none" stroke="#353238" stroke-width="1.5" stroke-linecap="butt" stroke-linejoin="miter" d="M 205,75 C 195,75 195,85 195,85" id="path8047-64-04" />
 <path fill="none" stroke="#353238" stroke-width="1.5" stroke-linecap="butt" stroke-linejoin="miter" d="M 210,75 L 205,75" id="path8061-2-2" />
 <path fill="none" stroke="#353238" stroke-width="1.5" stroke-linecap="butt" stroke-linejoin="miter" d="M 200,90.0003 L 200,125" id="path8266-9-2" />
 <path fill="none" stroke="#353238" stroke-width="1.5" stroke-linecap="butt" stroke-linejoin="miter" d="M 195,85.0003 L 195,120" id="path8266-9-7-0" />
 <ellipse cx="80.001" cy="65.0532" rx="1" ry="1" fill="none" stroke="#698eff" stroke-width="1.5" stroke-linecap="butt" stroke-linejoin="miter" />
 <ellipse cx="80.001" cy="70.0532" rx="1" ry="1" fill="none" stroke="#698eff" stroke-width="1.5" stroke-linecap="butt" stroke-linejoin="miter" />
 <ellipse cx="90.001" cy="65.0532" rx="1" ry="1" fill="none" stroke="#698eff" stroke-width="1.5" stroke-linecap="butt" stroke-linejoin="miter" />
 <ellipse cx="90.001" cy="70.0532" rx="1" ry="1" fill="none" stroke="#698eff" stroke-width="1.5" stroke-linecap="butt" stroke-linejoin="miter" />
 <path fill="none" stroke="#353238" stroke-width="1.5" stroke-linecap="butt" stroke-linejoin="miter" d="M 250,45 L 250,40 S 250,35 245,35 S 240,35 240,35" id="path7965-91" />
 <path fill="none" stroke="#353238" stroke-width="1.5" stroke-linecap="butt" stroke-linejoin="miter" d="M 245,30 C 255,30 255,40 255,40" id="path8047-9" />
 <path fill="none" stroke="#353238" stroke-width="1.5" stroke-linecap="butt" stroke-linejoin="miter" d="M 255,45 L 255,40" id="path8059-62" />
 <path fill="none" stroke="#4e2832" stroke-width="1.5" stroke-linecap="butt" stroke-linejoin="miter" d="M 295,45 L 295,50 S 295,55 290,55 S 285,55 285,55" id="path7965-2-8" />
 <path fill="none" stroke="#4e2832" stroke-width="1.5" stroke-linecap="butt" stroke-linejoin="miter" d="M 285,60 L 290,60" id="path8061-24-7" />
 <path fill="none" stroke="#ff3a5d" stroke-width="1.5" stroke-linecap="butt" stroke-linejoin="miter" d="M 285,55 L 285,50 S 285,45 280,45 S 275,45 275,45" id="path7965-12-4" />
 <path fill="none" stroke="#ff3a5d" stroke-width="1.5" stroke-linecap="butt" stroke-linejoin="miter" d="M 245,55 L 245,50 S 245,45 250,45 S 255,45 255,45" id="path7965-3-5-9" />
 <path fill="none" stroke="#ff3a5d" stroke-width="1.5" stroke-linecap="butt" stroke-linejoin="miter" d="M 285,60 L 285,65 S 285,70 280,70 S 275,70 275,70" id="path7965-12-6-0-9" />
 <path fill="none" stroke="#4e2832" stroke-width="1.5" stroke-linecap="butt" stroke-linejoin="miter" d="M 295,45 L 295,30" id="path8059-62-8" />
 <path fill="none" stroke="#353238" stroke-width="1.5" stroke-linecap="butt" stroke-linejoin="miter" d="M 255,70 L 255,75 S 255,80 250,80 S 245,80 245,80" id="path7965-12-6-0-1" />
 <path fill="none" stroke="#ff3a5d" stroke-width="1.5" stroke-linecap="butt" stroke-linejoin="miter" d="M 245,60 L 245,65 S 245,70 250,70 S 255,70 255,70" id="path7965-0-9-3" />
 <path fill="none" stroke="#353238" stroke-width="1.5" stroke-linecap="butt" stroke-linejoin="miter" d="M 260,70 L 260,75 S 260,80 265,80 S 270,80 270,80" id="path7965-5-9-8-8-6-0" />
 <path fill="none" stroke="#ff3a5d" stroke-width="1.5" stroke-linecap="butt" stroke-linejoin="miter" d="M 254.999,70 L 274.999,70" id="path8029-0-2-4-5" />
 <path fill="none" stroke="#4e2832" stroke-width="1.5" stroke-linecap="butt" stroke-linejoin="miter" d="M 274.571,15 L 285.982,15" id="path8029-0-2-7" />
 <path fill="none" stroke="#4e2832" stroke-width="1.5" stroke-linecap="butt" stroke-linejoin="miter" d="M 275,20 L 286.411,20" id="path8029-0-2-7-8" />
 <path fill="none" stroke="#ff3a5d" stroke-width="1.5" stroke-linecap="butt" stroke-linejoin="miter" d="M 295,4.9999 C 285,5 286,10 286,17 S 295,30 295,30" id="path10103" />
 <path fill="none" stroke="#353238" stroke-width="1.5" stroke-linecap="butt" stroke-linejoin="miter" d="M 235,35 L 240,35" id="path8061-54-0-6" />
 <path fill="none" stroke="#353238" stroke-width="1.5" stroke-linecap="butt" stroke-linejoin="miter" d="M 235,30 L 245,30" id="path8061-54-0" />
 <path fill="none" stroke="#353238" stroke-width="1.5" stroke-linecap="butt" stroke-linejoin="miter" d="M 227.1,95 L 218.1,95" id="path8538-5-2" />
 <path fill="none" stroke="#353238" stroke-width="1.5" stroke-linecap="butt" stroke-linejoin="miter" d="M 220.1,96 L 220.1,98.5 L 222.1,100.5 L 222.1,110.5 L 223.1,111 L 223.1,100.5 L 225.1,98.5 L 225.1,96" id="path10170" />
 <path fill="none" stroke="#4e2832" stroke-width="1.5" stroke-linecap="butt" stroke-linejoin="miter" d="M 265,38.9745 L 265,45.0255" id="path12233" />
 <path fill="none" stroke="#4e2832" stroke-width="1.5" stroke-linecap="butt" stroke-linejoin="miter" d="M 270,38.9745 L 270,45.0255" id="path12233-5" />
 <path fill="none" stroke="#ff3a5d" stroke-width="1.5" stroke-linecap="butt" stroke-linejoin="miter" d="M 254.999,45 L 274.999,45" id="path8029-0-2-4" />
 <path fill="none" stroke="#ff3a5d" stroke-width="1.5" stroke-linecap="butt" stroke-linejoin="miter" d="M 285,60 L 285,55" id="path8059-62-3" />
 <path fill="none" stroke="#4e2832" stroke-width="1.5" stroke-linecap="butt" stroke-linejoin="miter" d="M 300,49.9998 L 300,29.9998" id="path8059-62-8-9" />
 <ellipse cx="250.001" cy="50.0532" rx="1" ry="1" fill="none" stroke="#4e2832" stroke-width="1.5" stroke-linejoin="round" />
 <ellipse cx="250.001" cy="65.0532" rx="1" ry="1" fill="none" stroke="#4e2832" stroke-width="1.5" stroke-linejoin="round" />
 <ellipse cx="280.001" cy="65.0532" rx="1" ry="1" fill="none" stroke="#4e2832" stroke-width="1.5" stroke-linejoin="round" />
 <ellipse cx="280.001" cy="50.0532" rx="1" ry="1" fill="none" stroke="#4e2832" stroke-width="1.5" stroke-linejoin="round" />
 <path fill="none" stroke="#353238" stroke-width="1.5" stroke-linecap="butt" stroke-linejoin="miter" d="M 240,95 L 240,90 S 240,85 245,85 S 250,85 250,85" id="path7965-0-4" />
 <path fill="none" stroke="#353238" stroke-width="1.5" stroke-linecap="butt" stroke-linejoin="miter" d="M 245,80 C 235,80 235,90 235,90" id="path8047-64-2" />
 <path fill="none" stroke="#353238" stroke-width="1.5" stroke-linecap="butt" stroke-linejoin="miter" d="M 235,95 L 235,90" id="path8059-6-26" />
 <path fill="none" stroke="#353238" stroke-width="1.5" stroke-linecap="butt" stroke-linejoin="miter" d="M 242.1,95 L 233.1,95" id="path8538-5-2-8" />
 <path fill="none" stroke="#353238" stroke-width="1.5" stroke-linecap="butt" stroke-linejoin="miter" d="M 235.1,96 L 235.1,98.5 L 237.1,100.5 L 237.1,110.5 L 238.1,111 L 238.1,100.5 L 240.1,98.5 L 240.1,96" id="path10170-6" />
 <path fill="none" stroke="#353238" stroke-width="1.5" stroke-linecap="butt" stroke-linejoin="miter" d="M 235,20 L 260,20" id="path8029-0-2-3" />
 <path fill="none" stroke="#4e2832" stroke-width="1.5" stroke-linecap="butt" stroke-linejoin="miter" d="M 290,60 C 300,60 300,50 300,50" id="path8047-84-0" />
 <path fill="none" stroke="#ff3a5d" stroke-width="1.5" stroke-linecap="butt" stroke-linejoin="miter" d="M 295,4.9999 L 300,4.9999" id="path8061-54-6" />
 <path fill="none" stroke="#353238" stroke-width="1.5" stroke-linecap="butt" stroke-linejoin="miter" d="M 105,52 L 105,50" id="path8059-3-5-3-1" />
 <path fill="none" stroke="#7c7990" stroke-width="1.5" stroke-linecap="butt" stroke-linejoin="miter" d="M 155,13 L 155,17" id="path11020" />
 <path fill="none" stroke="#7c7990" stroke-width="1.5" stroke-linecap="butt" stroke-linejoin="miter" d="M 159,13 L 159,17" id="path11022" />
 <path fill="none" stroke="#7c7990" stroke-width="1.5" stroke-linecap="butt" stroke-linejoin="miter" d="M 163,13 L 163,17" id="path11024" />
 <path fill="none" stroke="#7c7990" stroke-width="1.5" stroke-linecap="butt" stroke-linejoin="miter" d="M 167,13 L 167,17" id="path11026" />
 <path fill="none" stroke="#7c7990" stroke-width="1.5" stroke-linecap="butt" stroke-linejoin="miter" d="M 171,13 L 171,17" id="path11028" />
 <path fill="none" stroke="#ff3a5d" stroke-width="1.5" stroke-linecap="butt" stroke-linejoin="miter" d="M 245,60 L 245,55" id="path8059-62-3-5" />
 <path fill="none" stroke="#353238" stroke-width="1.5" stroke-linecap="butt" stroke-linejoin="miter" d="M 250,85 L 280,85" id="path8029-0-29-1" />
 <path fill="none" stroke="#353238" stroke-width="1.5" stroke-linecap="butt" stroke-linejoin="miter" d="M 270,80 L 285,80" id="path8061-6" />
 <path fill="none" stroke="#ff3a5d" stroke-width="1.5" stroke-linecap="round" stroke-linejoin="miter" d="M 295,30 L 300,30" id="path8061-54-6-7" />
 <path fill="none" stroke="#ff3a5d" stroke-width="1.5" stroke-linecap="butt" stroke-linejoin="miter" d="M 300,5 C 310,5.0000 309,10 309,17 S 300,30 300,30" id="path10103-3" />
 <ellipse cx="267.5" cy="17.5" rx="7.5" ry="7.5" fill="none" stroke="#ff3a5d" stroke-width="1.5" stroke-linecap="butt" stroke-linejoin="miter" />
 <path fill="none" stroke="#353238" stroke-width="1.5" stroke-linecap="butt" stroke-linejoin="miter" d="M 283.999,122.5 L 300.999,122.5" id="path8700-3" />
 <path fill="none" stroke="#353238" stroke-width="1.5" stroke-linecap="butt" stroke-linejoin="miter" d="M 217.5,127.5 L 248,127.5" id="path8700-3-7" />
 <ellipse cx="267.512" cy="31.4261" rx="7.5" ry="7.5" fill="none" stroke="#ff3a5d" stroke-width="1.5" stroke-linecap="butt" stroke-linejoin="miter" />
 <path fill="none" stroke="#000000" stroke-width="5.8" stroke-linecap="butt" stroke-linejoin="miter" d="M 267.529,21.4513 L 267.529,27" id="path12231" />
 <ellipse cx="195.376" cy="24.3657" rx="1" ry="1" fill="none" stroke="#aeb1dc" stroke-width="1.5" stroke-linecap="butt" stroke-linejoin="miter" />
 <ellipse cx="203.001" cy="21.0532" rx="1" ry="1" fill="none" stroke="#aeb1dc" stroke-width="1.5" stroke-linecap="butt" stroke-linejoin="miter" />
 <ellipse cx="189.876" cy="17.3032" rx="1" ry="1" fill="none" stroke="#aeb1dc" stroke-width="1.5" stroke-linecap="butt" stroke-linejoin="miter" />
 <ellipse cx="197.001" cy="17.0532" rx="1" ry="1" fill="none" stroke="#aeb1dc" stroke-width="1.5" stroke-linecap="butt" stroke-linejoin="miter" />
 <ellipse cx="204.001" cy="13.053" rx="1" ry="1" fill="none" stroke="#aeb1dc" stroke-width="1.5" stroke-linecap="butt" stroke-linejoin="miter" />
 <ellipse cx="195.126" cy="9.9282" rx="1" ry="1" fill="none" stroke="#aeb1dc" stroke-width="1.5" stroke-linecap="butt" stroke-linejoin="miter" />
 <path fill="none" stroke="#5f4270" stroke-width="1" stroke-linecap="butt" stroke-linejoin="miter" d="M 291.5,10 L 291.5,15" id="path12381" />
 <path fill="none" stroke="#5f4270" stroke-width="1" stroke-linecap="butt" stroke-linejoin="miter" d="M 291.5,17 L 291.5,22" id="path12381-2" />
 <path fill="none" stroke="#5f4270" stroke-width="1" stroke-linecap="butt" stroke-linejoin="miter" d="M 294.5,14 L 294.5,18" id="path12381-0" />
 <path fill="none" stroke="#5f4270" stroke-width="1" stroke-linecap="butt" stroke-linejoin="miter" d="M 294.5,20 L 294.5,24" id="path12381-2-2" />
 <path fill="none" stroke="#5f4270" stroke-width="1" stroke-linecap="butt" stroke-linejoin="miter" d="M 294.5,7.9999 L 294.5,12" id="path12381-0-1" />
 <path fill="none" stroke="#5f4270" stroke-width="1" stroke-linecap="butt" stroke-linejoin="miter" d="M 297.5,10 L 297.5,15" id="path12381-7" />
 <path fill="none" stroke="#5f4270" stroke-width="1" stroke-linecap="butt" stroke-linejoin="miter" d="M 297.5,17 L 297.5,22" id="path12381-2-5" />
 <path fill="none" stroke="#5f4270" stroke-width="1" stroke-linecap="butt" stroke-linejoin="miter" d="M 300.5,14 L 300.5,18" id="path12381-0-17" />
 <path fill="none" stroke="#5f4270" stroke-width="1" stroke-linecap="butt" stroke-linejoin="miter" d="M 300.5,20 L 300.5,24" id="path12381-2-2-4" />
 <path fill="none" stroke="#5f4270" stroke-width="1" stroke-linecap="butt" stroke-linejoin="miter" d="M 300.5,8 L 300.5,12" id="path12381-0-1-1" />
 <path fill="none" stroke="#5f4270" stroke-width="1" stroke-linecap="butt" stroke-linejoin="miter" d="M 303.5,10 L 303.5,15" id="path12381-7-7" />
 <path fill="none" stroke="#5f4270" stroke-width="1" stroke-linecap="butt" stroke-linejoin="miter" d="M 303.5,17 L 303.5,22" id="path12381-2-5-1" />
 <ellipse cx="267.701" cy="31.4532" rx="1" ry="1" fill="none" stroke="#5f4270" stroke-width="1.5" stroke-linecap="butt" stroke-linejoin="round" />
 <ellipse cx="267.401" cy="17.2532" rx="1" ry="1" fill="none" stroke="#5f4270" stroke-width="1.5" stroke-linecap="butt" stroke-linejoin="round" />
 <path fill="none" stroke="#00ed95" stroke-width="1.5" stroke-linecap="butt" stroke-linejoin="miter" d="M 115,95 L 111,95" id="path12612" />
 <path fill="none" stroke="#00ed95" stroke-width="1.5" stroke-linecap="butt" stroke-linejoin="miter" d="M 115,100 L 111,100" id="path12612-1" />
 <path fill="none" stroke="#00ed95" stroke-width="1.5" stroke-linecap="butt" stroke-linejoin="miter" d="M 115,105 L 111,105" id="path12612-1-9" />
 <path fill="none" stroke="#00ed95" stroke-width="1.5" stroke-linecap="butt" stroke-linejoin="miter" d="M 115,110 L 111,110" id="path12612-1-9-6" />
 <path fill="none" stroke="#00ed95" stroke-width="1.5" stroke-linecap="butt" stroke-linejoin="miter" d="M 179,95 L 175,95" id="path12612-0" />
 <path fill="none" stroke="#00ed95" stroke-width="1.5" stroke-linecap="butt" stroke-linejoin="miter" d="M 179,100 L 175,100" id="path12612-1-8" />
 <path fill="none" stroke="#00ed95" stroke-width="1.5" stroke-linecap="butt" stroke-linejoin="miter" d="M 179,105 L 175,105" id="path12612-1-9-1" />
 <path fill="none" stroke="#00ed95" stroke-width="1.5" stroke-linecap="butt" stroke-linejoin="miter" d="M 179,110 L 175,110" id="path12612-1-9-6-0" />
 <path fill="none" stroke="#698eff" stroke-width="1.5" stroke-linecap="butt" stroke-linejoin="miter" d="M 13,60 C 19.3506,58.6908 25.0425,58.6427 30,60 C 34.8873,61.3204 40.5387,61.3462 47.0001,60" id="path12796" />
 <path fill="none" stroke="#353238" stroke-width="1.5" stroke-linecap="butt" stroke-linejoin="miter" d="M 62.6,109.6 L 67.6,109.6" id="path8700-3-7-3" />
 <path fill="none" stroke="#353238" stroke-width="1.5" stroke-linecap="butt" stroke-linejoin="miter" d="M 89.5,109.6 L 94.5,109.6" id="path8700-3-7-3-9" />
 <ellipse cx="20.0014" cy="70.0532" rx="1" ry="1" fill="none" stroke="#383572" stroke-width="1.5" stroke-linecap="butt" stroke-linejoin="miter" />
 <ellipse cx="29.0014" cy="65.0532" rx="1" ry="1" fill="none" stroke="#383572" stroke-width="1.5" stroke-linecap="butt" stroke-linejoin="miter" />
 <ellipse cx="38.0014" cy="73.0532" rx="1" ry="1" fill="none" stroke="#383572" stroke-width="1.5" stroke-linecap="butt" stroke-linejoin="miter" />
 <path fill="none" stroke="#353238" stroke-width="1.5" stroke-linecap="butt" stroke-linejoin="miter" d="M 130,55 L 130,60 S 130,65 125,65 S 120,65 120,65" id="path7965-9-5" />
 <path fill="none" stroke="#353238" stroke-width="1.5" stroke-linecap="butt" stroke-linejoin="miter" d="M 125,70 C 135,70 135,60 135,60" id="path8047-6-6" />
 <path fill="none" stroke="#353238" stroke-width="1.5" stroke-linecap="butt" stroke-linejoin="miter" d="M 105,85 L 110,85" id="path8258-4-2-3" />
 <path fill="none" stroke="#00475b" stroke-width="1.5" stroke-linecap="butt" stroke-linejoin="miter" d="M 120,110 L 120,105 L 130,105 L 130,110 Z" id="path13149" />
 <path fill="none" stroke="#00475b" stroke-width="1.5" stroke-linecap="butt" stroke-linejoin="miter" d="M 120,100 L 120,95 L 130,95 L 130,100 Z" id="path13151" />
 <path fill="none" stroke="#00475b" stroke-width="1.5" stroke-linecap="butt" stroke-linejoin="miter" d="M 140,110 L 140,105 L 150,105 L 150,110 Z" id="path13149-2" />
 <path fill="none" stroke="#00475b" stroke-width="1.5" stroke-linecap="butt" stroke-linejoin="miter" d="M 140,100 L 140,95 L 150,95 L 150,100 Z" id="path13151-2" />
 <path fill="none" stroke="#00475b" stroke-width="1.5" stroke-linecap="butt" stroke-linejoin="miter" d="M 160,110 L 160,105 L 170,105 L 170,110 Z" id="path13149-2-2" />
 <path fill="none" stroke="#00475b" stroke-width="1.5" stroke-linecap="butt" stroke-linejoin="miter" d="M 160,100 L 160,95 L 170,95 L 170,100 Z" id="path13151-2-7" />
 <path fill="none" stroke="#7c7990" stroke-width="1.5" stroke-linecap="butt" stroke-linejoin="miter" d="M 175,13 L 175,17" id="path11028-7" />
 <path fill="none" stroke="#7c7990" stroke-width="1.5" stroke-linecap="butt" stroke-linejoin="miter" d="M 179,13 L 179,17" id="path11028-7-2" />
 <path fill="none" stroke="#353238" stroke-width="1.5" stroke-linecap="butt" stroke-linejoin="miter" d="M 77.6,85 L 80,85" id="path13426" />
 <path fill="none" stroke="#ff423f" stroke-width="1.5" stroke-linecap="butt" stroke-linejoin="miter" d="M 460,85 L 480,85" id="path8029-0-2-4-7" />
 <path fill="none" stroke="#383572" stroke-width="1.5" stroke-linecap="butt" stroke-linejoin="miter" d="M 26,140 C 21,135 28,128 28,128 S 27.1326,134.508 30.1326,134.508 C 33.1326,134.508 33,131 33,131 S 35.5745,133.325 35.5745,136.325 S 34,140 34,140" id="path14250" />
 </g>
</svg>
